<svg width="49" height="55" viewBox="0 0 49 55" fill="none" xmlns="http://www.w3.org/2000/svg">
<path d="M24.1667 48.3333C37.5135 48.3333 48.3333 37.5135 48.3333 24.1667C48.3333 10.8198 37.5135 0 24.1667 0C10.8198 0 0 10.8198 0 24.1667C0 37.5135 10.8198 48.3333 24.1667 48.3333Z" fill="#FFF59D"/>
<path d="M39.8747 24.1666C39.8747 14.8625 31.8997 7.49164 22.3539 8.57914C15.1039 9.42497 9.30387 15.225 8.57887 22.475C7.9747 28.0333 10.2705 32.9875 14.1372 36.1291C15.8289 37.5791 16.9164 39.6333 16.9164 41.9291V42.2916H31.4164V42.1708C31.4164 39.9958 32.383 37.8208 34.0747 36.3708C37.5789 33.4708 39.8747 29.1208 39.8747 24.1666Z" fill="#FBC02D"/>
<path d="M32.1406 21.9918L28.5156 19.5751C28.1531 19.3334 27.549 19.3334 27.1865 19.5751L24.1656 21.5084L21.2656 19.5751C20.9031 19.3334 20.299 19.3334 19.9365 19.5751L16.3115 21.9918C16.0698 22.2334 15.8281 22.4751 15.8281 22.8376C15.8281 23.2001 15.8281 23.5626 16.0698 23.8043L20.6615 29.4834V42.2918H23.0781V29.0001C23.0781 28.7584 22.9573 28.5168 22.8365 28.2751L18.849 23.3209L20.6615 22.1126L23.5615 24.0459C23.924 24.2876 24.5281 24.2876 24.8906 24.0459L27.7906 22.1126L29.6031 23.3209L25.6156 28.2751C25.4948 28.5168 25.374 28.7584 25.374 29.0001V42.2918H27.7906V29.4834L32.3823 23.8043C32.624 23.5626 32.7448 23.2001 32.624 22.8376C32.5031 22.4751 32.3823 22.1126 32.1406 21.9918Z" fill="#FFF59D"/>
<path d="M24.1665 54.375C26.1685 54.375 27.7915 52.752 27.7915 50.75C27.7915 48.748 26.1685 47.125 24.1665 47.125C22.1645 47.125 20.5415 48.748 20.5415 50.75C20.5415 52.752 22.1645 54.375 24.1665 54.375Z" fill="#5C6BC0"/>
<path d="M26.5832 51.9583H21.7498C19.0915 51.9583 16.9165 49.7833 16.9165 47.125V41.0833H31.4165V47.125C31.4165 49.7833 29.2415 51.9583 26.5832 51.9583Z" fill="#9FA8DA"/>
<path d="M31.4165 47.125L17.3998 49.0583C17.7623 49.9041 18.4873 50.75 19.3332 51.2333L30.6915 49.6625C31.1748 48.9375 31.4165 48.0916 31.4165 47.125ZM16.9165 44.3458V46.7625L31.4165 44.7083V42.2916L16.9165 44.3458Z" fill="#5C6BC0"/>
</svg>
