<svg width="25" height="20" viewBox="0 0 25 20" fill="none" xmlns="http://www.w3.org/2000/svg">
<path d="M22.5001 0H5.00023C3.62149 0 2.50024 1.12124 2.50024 2.49998V8.74994H5.00023V4.99997L13.0002 10.9999C13.2166 11.162 13.4798 11.2496 13.7502 11.2496C14.0206 11.2496 14.2837 11.162 14.5002 10.9999L22.5001 4.99997V16.2499H12.5002V18.7499H22.5001C23.8788 18.7499 25.0001 17.6286 25.0001 16.2499V2.49998C25.0001 1.12124 23.8788 0 22.5001 0ZM13.7502 8.43744L5.83272 2.49998H21.6676L13.7502 8.43744Z" fill="#F4F4F4"/>
<path d="M0 10H8.74994V12.5H0V10ZM2.49998 13.75H9.99993V16.25H2.49998V13.75ZM6.24996 17.4999H11.2499V19.9999H6.24996V17.4999Z" fill="#F4F4F4"/>
</svg>
