<svg width="35" height="32" viewBox="0 0 35 32" fill="none" xmlns="http://www.w3.org/2000/svg">
<path d="M17.6056 0.74707C12.945 0.74707 12.3631 0.766322 10.5332 0.839479C8.70612 0.916487 7.46234 1.17446 6.36867 1.55565C5.2407 1.94839 4.28285 2.47589 3.32928 3.33195C2.37572 4.18802 1.78671 5.04665 1.35068 6.06058C0.926078 7.04243 0.637294 8.15903 0.552945 9.79929C0.467168 11.4421 0.450012 11.9645 0.450012 16.1486C0.450012 20.3326 0.471457 20.855 0.552945 22.4978C0.638723 24.1368 0.926078 25.2547 1.35068 26.2365C1.78141 27.2644 2.45663 28.1956 3.32928 28.9652C4.18603 29.7491 5.2234 30.3554 6.36867 30.7415C7.46377 31.1214 8.70755 31.3819 10.5332 31.4576C12.3631 31.5346 12.945 31.55 17.6056 31.55C22.2661 31.55 22.848 31.5308 24.6779 31.4576C26.5036 31.3806 27.7488 31.1214 28.8424 30.7415C29.9871 30.3543 31.0242 29.7482 31.8818 28.9652C32.7554 28.1962 33.4307 27.2649 33.8604 26.2365C34.2836 25.2547 34.5738 24.1368 34.6582 22.4978C34.7439 20.855 34.7611 20.3326 34.7611 16.1486C34.7611 11.9645 34.7397 11.4421 34.6582 9.79929C34.5724 8.16032 34.2836 7.04114 33.8604 6.06058C33.4295 5.03281 32.7543 4.10168 31.8818 3.33195C31.0257 2.5473 29.9882 1.94093 28.8424 1.55565C27.7488 1.17446 26.5036 0.915203 24.6779 0.839479C22.848 0.762472 22.2661 0.74707 17.6056 0.74707ZM17.6056 3.51934C22.1847 3.51934 22.7308 3.53987 24.5393 3.61046C26.2119 3.68105 27.1197 3.93004 27.723 4.1431C28.5265 4.42161 29.0955 4.75531 29.6988 5.29308C30.2978 5.83213 30.6695 6.34423 30.9797 7.06553C31.2142 7.60715 31.4944 8.42214 31.5702 9.92379C31.6517 11.5486 31.6702 12.0364 31.6702 16.1486C31.6702 20.2607 31.6488 20.7497 31.5644 22.3733C31.4772 23.875 31.1985 24.69 30.9626 25.2316C30.6835 25.9 30.2448 26.5054 29.6773 27.0053C29.1228 27.5152 28.4489 27.908 27.7044 28.1553C27.104 28.3658 26.1819 28.6173 24.5092 28.6854C22.6879 28.7585 22.1518 28.7752 17.5627 28.7752C12.9721 28.7752 12.436 28.756 10.6161 28.6802C8.94201 28.6019 8.0199 28.3517 7.41945 28.1399C6.67448 27.8924 6.0008 27.4982 5.44799 26.9861C4.87411 26.4916 4.43398 25.8857 4.16133 25.2149C3.92544 24.6758 3.64809 23.848 3.56088 22.3464C3.49655 20.7292 3.47368 20.2299 3.47368 16.1293C3.47368 12.0274 3.49655 11.5268 3.56088 9.89042C3.64809 8.38877 3.92544 7.56223 4.16133 7.02317C4.46155 6.2916 4.84612 5.79106 5.44799 5.25072C6.04701 4.71295 6.60599 4.36642 7.41945 4.09818C8.0199 3.88512 8.92199 3.63485 10.5947 3.55784C12.4174 3.50009 12.9535 3.48083 17.5412 3.48083L17.6056 3.51934ZM17.6056 8.23989C16.4487 8.23989 15.3032 8.44446 14.2344 8.8419C13.1656 9.23935 12.1944 9.8219 11.3764 10.5563C10.5584 11.2907 9.90947 12.1625 9.46676 13.122C9.02404 14.0816 8.79618 15.11 8.79618 16.1486C8.79618 17.1871 9.02404 18.2155 9.46676 19.1751C9.90947 20.1346 10.5584 21.0064 11.3764 21.7408C12.1944 22.4752 13.1656 23.0578 14.2344 23.4552C15.3032 23.8527 16.4487 24.0572 17.6056 24.0572C19.9419 24.0572 22.1826 23.224 23.8347 21.7408C25.4868 20.2577 26.4149 18.2461 26.4149 16.1486C26.4149 14.051 25.4868 12.0394 23.8347 10.5563C22.1826 9.07312 19.9419 8.23989 17.6056 8.23989ZM17.6056 21.2824C14.4461 21.2824 11.887 18.985 11.887 16.1486C11.887 13.3121 14.4461 11.0147 17.6056 11.0147C20.765 11.0147 23.3241 13.3121 23.3241 16.1486C23.3241 18.985 20.765 21.2824 17.6056 21.2824ZM28.8224 7.92801C28.8026 8.40626 28.577 8.85898 28.1931 9.19102C27.8092 9.52307 27.2968 9.70858 26.7638 9.70858C26.2307 9.70858 25.7183 9.52307 25.3344 9.19102C24.9505 8.85898 24.7249 8.40626 24.7051 7.92801C24.7051 7.43784 24.922 6.96775 25.3081 6.62115C25.6941 6.27455 26.2178 6.07983 26.7638 6.07983C27.3097 6.07983 27.8334 6.27455 28.2194 6.62115C28.6055 6.96775 28.8224 7.43784 28.8224 7.92801Z" fill="#FCFCFC"/>
</svg>
