<svg width="47" height="26" viewBox="0 0 47 26" fill="none" xmlns="http://www.w3.org/2000/svg">
<path d="M13.3334 19.25C15.0695 19.25 16.5452 18.6424 17.7605 17.4271C18.9757 16.2118 19.5834 14.7361 19.5834 13C19.5834 11.2639 18.9757 9.78819 17.7605 8.57292C16.5452 7.35764 15.0695 6.75 13.3334 6.75C11.5973 6.75 10.1216 7.35764 8.90629 8.57292C7.69101 9.78819 7.08337 11.2639 7.08337 13C7.08337 14.7361 7.69101 16.2118 8.90629 17.4271C10.1216 18.6424 11.5973 19.25 13.3334 19.25ZM13.3334 25.5C9.86115 25.5 6.90976 24.2847 4.47921 21.8542C2.04865 19.4236 0.833374 16.4722 0.833374 13C0.833374 9.52778 2.04865 6.57639 4.47921 4.14583C6.90976 1.71528 9.86115 0.5 13.3334 0.5C16.1459 0.5 18.6028 1.29861 20.7042 2.89583C22.8056 4.49306 24.2723 6.47222 25.1042 8.83333H42.5521L46.6667 12.9479L39.375 21.2812L34.1667 17.1667L30 21.3333L25.8334 17.1667H25.1042C24.2362 19.6667 22.7257 21.6806 20.573 23.2083C18.4202 24.7361 16.007 25.5 13.3334 25.5Z" fill="#F3F3F3"/>
</svg>
