<svg width="49" height="50" viewBox="0 0 49 50" fill="none" xmlns="http://www.w3.org/2000/svg">
<path fill-rule="evenodd" clip-rule="evenodd" d="M0.210267 4.67674C0.210267 3.59956 0.638173 2.5665 1.39985 1.80483C2.16153 1.04315 3.19459 0.61524 4.27177 0.61524H44.7586C45.2924 0.614368 45.8211 0.718795 46.3146 0.922541C46.808 1.12629 47.2563 1.42535 47.634 1.80261C48.0117 2.17987 48.3112 2.62792 48.5155 3.1211C48.7198 3.61429 48.8248 4.14292 48.8245 4.67674V45.1636C48.8251 45.6975 48.7204 46.2263 48.5164 46.7197C48.3124 47.2131 48.0131 47.6615 47.6357 48.0391C47.2583 48.4168 46.8101 48.7163 46.3168 48.9205C45.8235 49.1248 45.2947 49.2298 44.7608 49.2295H4.27177C3.73822 49.2295 3.20989 49.1243 2.71699 48.9201C2.22408 48.7159 1.77624 48.4165 1.39907 48.0391C1.0219 47.6617 0.722775 47.2137 0.518795 46.7207C0.314816 46.2277 0.209976 45.6993 0.210267 45.1658V4.67674ZM19.4527 19.1505H26.0355V22.4563C26.9857 20.5559 29.4164 18.8456 33.0691 18.8456C40.0717 18.8456 41.7312 22.6309 41.7312 29.5761V42.4412H34.6446V31.1582C34.6446 27.2028 33.6944 24.971 31.2814 24.971C27.9336 24.971 26.5415 27.3774 26.5415 31.1582V42.4412H19.4527V19.1505ZM7.29911 42.1384H14.3879V18.8456H7.29911V42.1362V42.1384ZM15.4022 11.2485C15.4156 11.8555 15.3076 12.459 15.0845 13.0236C14.8615 13.5883 14.5279 14.1027 14.1034 14.5367C13.6789 14.9706 13.1719 15.3155 12.6123 15.5509C12.0527 15.7863 11.4517 15.9075 10.8446 15.9075C10.2375 15.9075 9.63654 15.7863 9.07694 15.5509C8.51734 15.3155 8.0104 14.9706 7.58586 14.5367C7.16133 14.1027 6.82775 13.5883 6.60472 13.0236C6.38168 12.459 6.27368 11.8555 6.28705 11.2485C6.31328 10.0571 6.80498 8.92339 7.65683 8.09009C8.50869 7.25679 9.65297 6.79017 10.8446 6.79017C12.0363 6.79017 13.1806 7.25679 14.0324 8.09009C14.8843 8.92339 15.376 10.0571 15.4022 11.2485Z" fill="#F4F4F4"/>
</svg>
