<svg width="189" height="189" viewBox="0 0 189 189" fill="none" xmlns="http://www.w3.org/2000/svg">
<rect x="4.43847" y="4.46386" width="180.075" height="180.077" stroke="#F4F4F4" stroke-width="8.87694"/>
<path d="M133.18 87.0723V96.142C133.18 128.491 110.657 148.142 81.0289 148.142C47.7734 148.142 23.8898 123.653 23.8898 93.27C23.8898 62.5841 48.2269 38.096 79.3662 38.096C99.6218 38.096 116.703 48.0726 125.622 62.2818L105.064 74.0724C100.68 67.119 91.1568 61.6772 79.215 61.6772C61.3779 61.6772 48.0757 74.8282 48.0757 93.4211C48.0757 111.409 60.7733 124.56 81.3313 124.56C95.3893 124.56 104.61 118.363 108.389 108.235H80.122V87.0723H133.18Z" fill="#F4F4F4"/>
<path d="M153.031 148.116C145.17 148.116 138.67 141.616 138.67 133.756C138.67 125.895 145.17 119.396 153.031 119.396C160.891 119.396 167.391 125.895 167.391 133.756C167.391 141.616 160.891 148.116 153.031 148.116Z" fill="#F4F4F4"/>
</svg>
