<svg width="35" height="34" viewBox="0 0 35 34" fill="none" xmlns="http://www.w3.org/2000/svg">
<path d="M17.4167 17C15.125 17 13.1632 16.1841 11.5312 14.5521C9.89931 12.9202 9.08333 10.9584 9.08333 8.66671C9.08333 6.37504 9.89931 4.41324 11.5312 2.78129C13.1632 1.14935 15.125 0.333374 17.4167 0.333374C19.7083 0.333374 21.6701 1.14935 23.3021 2.78129C24.934 4.41324 25.75 6.37504 25.75 8.66671C25.75 10.9584 24.934 12.9202 23.3021 14.5521C21.6701 16.1841 19.7083 17 17.4167 17ZM0.75 33.6667V27.8334C0.75 26.6528 1.05417 25.5681 1.6625 24.5792C2.27083 23.5903 3.07778 22.8348 4.08333 22.3125C6.23611 21.2362 8.42361 20.4292 10.6458 19.8917C12.8681 19.3542 15.125 19.0848 17.4167 19.0834C19.7083 19.082 21.9653 19.3514 24.1875 19.8917C26.4097 20.432 28.5972 21.2389 30.75 22.3125C31.7569 22.8334 32.5646 23.5889 33.1729 24.5792C33.7812 25.5695 34.0847 26.6542 34.0833 27.8334V33.6667H0.75Z" fill="#F3F3F3"/>
</svg>
