<svg width="108" height="108" viewBox="0 0 108 108" fill="none" xmlns="http://www.w3.org/2000/svg">
<circle cx="54" cy="54" r="54" fill="#B73C3A"/>
<path d="M75.2583 78C69.8185 78 64.444 76.8146 59.1347 74.4437C53.8255 72.0728 48.9949 68.7105 44.6431 64.3569C40.2912 60.0034 36.9298 55.1728 34.5589 49.8653C32.1881 44.5578 31.0017 39.1832 31 33.7417C31 32.9583 31.2611 32.3056 31.7833 31.7833C32.3056 31.2611 32.9583 31 33.7417 31H44.3167C44.9259 31 45.4699 31.2071 45.9486 31.6214C46.4273 32.0357 46.7102 32.5249 46.7972 33.0889L48.4944 42.2278C48.5815 42.9241 48.5597 43.5116 48.4292 43.9903C48.2986 44.469 48.0593 44.8824 47.7111 45.2306L41.3792 51.6278C42.2495 53.238 43.2827 54.7933 44.4786 56.2938C45.6744 57.7944 46.9913 59.2418 48.4292 60.6361C49.7782 61.9852 51.1926 63.2368 52.6722 64.3909C54.1519 65.545 55.7185 66.5999 57.3722 67.5556L63.5083 61.4194C63.9 61.0278 64.4118 60.7345 65.0437 60.5395C65.6756 60.3445 66.2953 60.2897 66.9028 60.375L75.9111 62.2028C76.5204 62.3769 77.0208 62.6928 77.4125 63.1506C77.8042 63.6084 78 64.1193 78 64.6833V75.2583C78 76.0417 77.7389 76.6944 77.2167 77.2167C76.6944 77.7389 76.0417 78 75.2583 78Z" fill="#F3F3F3"/>
</svg>
