<svg width="252" height="251" viewBox="0 0 252 251" fill="none" xmlns="http://www.w3.org/2000/svg">
<ellipse cx="126" cy="125.5" rx="126" ry="125.5" fill="#B73C3A"/>
<path d="M34.5686 120V93.8544H46.3526C47.5801 93.8544 48.7094 94.1122 49.7405 94.6277C50.7961 95.1433 51.7044 95.8184 52.4655 96.6531C53.2265 97.4878 53.8157 98.4329 54.2331 99.4886C54.675 100.544 54.8959 101.612 54.8959 102.692C54.8959 103.502 54.7977 104.288 54.6013 105.049C54.4049 105.786 54.1226 106.485 53.7544 107.148C53.3861 107.811 52.9319 108.412 52.3918 108.953C51.8763 109.468 51.2871 109.91 50.6242 110.278L56.6267 120H49.8141L44.5482 111.567H40.6079V120H34.5686ZM40.6079 106.301H46.1316C46.8436 106.301 47.4573 105.97 47.9729 105.307C48.4884 104.62 48.7462 103.748 48.7462 102.692C48.7462 101.612 48.4516 100.753 47.8624 100.115C47.2732 99.4763 46.6349 99.1572 45.9475 99.1572H40.6079V106.301ZM68.3623 120.368C66.742 120.368 65.2813 120.11 63.9801 119.595C62.7035 119.055 61.6111 118.331 60.7027 117.422C59.8189 116.514 59.1438 115.471 58.6774 114.292C58.2109 113.089 57.9777 111.837 57.9777 110.536C57.9777 109.137 58.2109 107.823 58.6774 106.596C59.1438 105.344 59.8189 104.251 60.7027 103.318C61.5865 102.385 62.6667 101.649 63.9433 101.109C65.2445 100.569 66.7174 100.299 68.3623 100.299C70.0071 100.299 71.4678 100.569 72.7444 101.109C74.021 101.649 75.1012 102.385 75.985 103.318C76.8688 104.227 77.5317 105.282 77.9736 106.485C78.44 107.688 78.6732 108.953 78.6732 110.278C78.6732 110.622 78.661 110.966 78.6364 111.309C78.6119 111.628 78.575 111.911 78.5259 112.156H64.2379C64.3361 113.457 64.8026 114.452 65.6373 115.139C66.4965 115.802 67.4662 116.133 68.5464 116.133C69.4057 116.133 70.2281 115.925 71.0137 115.507C71.8238 115.09 72.3639 114.525 72.634 113.813L77.6421 115.213C76.8811 116.735 75.7027 117.975 74.107 118.932C72.5112 119.89 70.5963 120.368 68.3623 120.368ZM72.4498 108.511C72.3271 107.283 71.8852 106.313 71.1241 105.602C70.3631 104.89 69.4179 104.534 68.2886 104.534C67.1348 104.534 66.1774 104.902 65.4163 105.638C64.6798 106.35 64.2502 107.308 64.1274 108.511H72.4498ZM88.5981 120.368C87.3706 120.368 86.2413 120.11 85.2102 119.595C84.2037 119.079 83.3321 118.367 82.5956 117.459C81.8591 116.551 81.2822 115.483 80.8649 114.255C80.4475 113.028 80.2389 111.702 80.2389 110.278C80.2389 108.879 80.4598 107.578 80.9017 106.375C81.3682 105.147 81.9942 104.092 82.7798 103.208C83.5899 102.3 84.5351 101.588 85.6153 101.072C86.72 100.557 87.923 100.299 89.2241 100.299C90.6971 100.299 91.9614 100.618 93.0171 101.256C94.0973 101.894 94.9933 102.754 95.7053 103.834V100.667H100.824V120.921C100.824 121.51 100.934 121.915 101.155 122.136C101.376 122.381 101.769 122.516 102.334 122.541V127.549C101.818 127.647 101.254 127.721 100.64 127.77C100.051 127.819 99.5228 127.844 99.0563 127.844C98.4917 127.844 97.9516 127.745 97.436 127.549C96.945 127.377 96.5154 127.119 96.1472 126.776C95.7789 126.457 95.4843 126.064 95.2634 125.597C95.0424 125.131 94.9319 124.615 94.9319 124.051V116.87C93.6063 119.202 91.495 120.368 88.5981 120.368ZM90.8444 115.397C91.7036 115.397 92.477 115.164 93.1644 114.697C93.8518 114.206 94.441 113.568 94.9319 112.782V108.695C94.7847 108.228 94.5637 107.786 94.2691 107.369C93.9745 106.952 93.6308 106.596 93.238 106.301C92.8452 105.982 92.4279 105.737 91.986 105.565C91.5441 105.393 91.1022 105.307 90.6603 105.307C90.022 105.307 89.4328 105.454 88.8927 105.749C88.3526 106.019 87.8861 106.387 87.4933 106.854C87.1005 107.32 86.7937 107.86 86.5727 108.474C86.3518 109.088 86.2413 109.738 86.2413 110.426C86.2413 111.874 86.6586 113.065 87.4933 113.998C88.3526 114.93 89.4696 115.397 90.8444 115.397ZM110.682 120.368C108.718 120.368 107.22 119.755 106.189 118.527C105.158 117.275 104.642 115.446 104.642 113.04V100.667H110.534V111.751C110.534 112.93 110.768 113.838 111.234 114.476C111.701 115.09 112.363 115.397 113.223 115.397C114.008 115.397 114.769 115.188 115.506 114.771C116.242 114.354 116.893 113.629 117.457 112.598V100.667H123.349V113.372C123.349 113.961 123.46 114.378 123.681 114.624C123.902 114.845 124.295 114.98 124.859 115.029V120C124.246 120.123 123.705 120.196 123.239 120.221C122.797 120.27 122.404 120.295 122.061 120.295C119.998 120.27 118.808 119.448 118.489 117.827L118.378 116.649C117.494 117.926 116.39 118.871 115.064 119.484C113.763 120.074 112.302 120.368 110.682 120.368ZM137.373 120.368C135.753 120.368 134.292 120.11 132.991 119.595C131.714 119.055 130.622 118.331 129.713 117.422C128.829 116.514 128.154 115.471 127.688 114.292C127.221 113.089 126.988 111.837 126.988 110.536C126.988 109.137 127.221 107.823 127.688 106.596C128.154 105.344 128.829 104.251 129.713 103.318C130.597 102.385 131.677 101.649 132.954 101.109C134.255 100.569 135.728 100.299 137.373 100.299C139.018 100.299 140.478 100.569 141.755 101.109C143.032 101.649 144.112 102.385 144.996 103.318C145.879 104.227 146.542 105.282 146.984 106.485C147.451 107.688 147.684 108.953 147.684 110.278C147.684 110.622 147.671 110.966 147.647 111.309C147.622 111.628 147.586 111.911 147.536 112.156H133.248C133.347 113.457 133.813 114.452 134.648 115.139C135.507 115.802 136.477 116.133 137.557 116.133C138.416 116.133 139.239 115.925 140.024 115.507C140.834 115.09 141.374 114.525 141.644 113.813L146.653 115.213C145.892 116.735 144.713 117.975 143.117 118.932C141.522 119.89 139.607 120.368 137.373 120.368ZM141.46 108.511C141.338 107.283 140.896 106.313 140.135 105.602C139.374 104.89 138.428 104.534 137.299 104.534C136.145 104.534 135.188 104.902 134.427 105.638C133.69 106.35 133.261 107.308 133.138 108.511H141.46ZM158.419 120.368C157.609 120.368 156.762 120.307 155.878 120.184C155.019 120.061 154.159 119.902 153.3 119.705C152.441 119.484 151.618 119.227 150.833 118.932C150.047 118.613 149.36 118.269 148.771 117.901L151.091 113.924C152.367 114.66 153.607 115.225 154.81 115.618C156.013 116.011 157.167 116.207 158.271 116.207C159.131 116.207 159.781 116.072 160.223 115.802C160.69 115.532 160.923 115.139 160.923 114.624C160.923 114.108 160.616 113.715 160.002 113.445C159.388 113.151 158.333 112.807 156.835 112.414C155.534 112.07 154.429 111.727 153.521 111.383C152.613 111.039 151.876 110.659 151.312 110.241C150.771 109.8 150.379 109.309 150.133 108.768C149.888 108.228 149.765 107.59 149.765 106.854C149.765 105.872 149.961 104.975 150.354 104.165C150.771 103.355 151.336 102.668 152.048 102.103C152.76 101.539 153.595 101.097 154.552 100.777C155.534 100.458 156.602 100.299 157.756 100.299C159.106 100.299 160.481 100.507 161.88 100.925C163.304 101.318 164.691 101.87 166.041 102.582L163.722 106.301C162.519 105.638 161.438 105.16 160.481 104.865C159.548 104.546 158.64 104.386 157.756 104.386C157.019 104.386 156.406 104.521 155.915 104.791C155.448 105.037 155.215 105.442 155.215 106.007C155.215 106.277 155.276 106.51 155.399 106.706C155.522 106.878 155.718 107.05 155.988 107.222C156.283 107.369 156.663 107.516 157.13 107.664C157.596 107.786 158.173 107.934 158.861 108.106C160.285 108.474 161.487 108.842 162.469 109.21C163.451 109.579 164.249 109.996 164.863 110.462C165.477 110.904 165.919 111.42 166.189 112.009C166.459 112.598 166.594 113.298 166.594 114.108C166.594 115.065 166.397 115.937 166.005 116.723C165.636 117.484 165.096 118.134 164.384 118.674C163.672 119.214 162.813 119.632 161.807 119.926C160.8 120.221 159.671 120.368 158.419 120.368ZM181.754 118.969C180.943 119.313 180.023 119.632 178.992 119.926C177.961 120.221 176.905 120.368 175.825 120.368C175.088 120.368 174.389 120.27 173.726 120.074C173.087 119.902 172.523 119.619 172.032 119.227C171.541 118.809 171.148 118.269 170.853 117.606C170.583 116.944 170.448 116.146 170.448 115.213V105.123H167.981V100.667H170.448V94.5172H176.34V100.667H180.281V105.123H176.34V113.187C176.34 113.826 176.5 114.292 176.819 114.587C177.163 114.857 177.58 114.992 178.071 114.992C178.488 114.992 178.93 114.918 179.397 114.771C179.863 114.624 180.281 114.464 180.649 114.292L181.754 118.969ZM198.132 120.368C197.175 120.368 196.278 120.221 195.444 119.926C194.634 119.607 193.934 119.178 193.345 118.637C192.756 118.073 192.289 117.422 191.945 116.686C191.602 115.925 191.43 115.102 191.43 114.219C191.43 113.261 191.626 112.39 192.019 111.604C192.436 110.818 193.013 110.143 193.75 109.579C194.486 109.014 195.358 108.572 196.364 108.253C197.371 107.934 198.488 107.774 199.715 107.774C200.526 107.774 201.311 107.848 202.072 107.995C202.833 108.118 203.496 108.314 204.061 108.584V107.701C204.061 105.466 202.772 104.349 200.194 104.349C199.139 104.349 198.132 104.534 197.175 104.902C196.217 105.246 195.211 105.773 194.155 106.485L192.424 102.803C193.701 101.968 195.026 101.342 196.401 100.925C197.776 100.507 199.237 100.299 200.783 100.299C203.705 100.299 205.963 100.986 207.559 102.361C209.155 103.736 209.953 105.749 209.953 108.4V113.372C209.953 113.961 210.063 114.378 210.284 114.624C210.505 114.845 210.898 114.98 211.463 115.029V120C210.898 120.123 210.37 120.196 209.879 120.221C209.413 120.27 208.995 120.295 208.627 120.295C207.547 120.27 206.724 120.049 206.16 119.632C205.595 119.214 205.239 118.613 205.092 117.827L204.981 116.944C204.122 118.048 203.091 118.895 201.888 119.484C200.71 120.074 199.458 120.368 198.132 120.368ZM199.863 116.133C200.501 116.133 201.115 116.023 201.704 115.802C202.318 115.581 202.821 115.286 203.214 114.918C203.778 114.476 204.061 114.01 204.061 113.519V111.678C203.545 111.481 202.981 111.334 202.367 111.236C201.778 111.113 201.225 111.052 200.71 111.052C199.63 111.052 198.733 111.297 198.022 111.788C197.334 112.279 196.99 112.917 196.99 113.703C196.99 114.415 197.26 115.004 197.801 115.471C198.341 115.912 199.028 116.133 199.863 116.133ZM76.2842 163V136.854H86.0428C88.2032 136.854 90.0935 137.198 91.7138 137.885C93.3341 138.573 94.6843 139.506 95.7645 140.684C96.8693 141.863 97.6917 143.25 98.2318 144.845C98.7964 146.417 99.0788 148.098 99.0788 149.89C99.0788 151.879 98.7719 153.683 98.1581 155.304C97.5444 156.899 96.6606 158.274 95.5068 159.428C94.3775 160.557 93.0027 161.441 91.3824 162.079C89.7866 162.693 88.0068 163 86.0428 163H76.2842ZM92.929 149.89C92.929 148.737 92.7695 147.693 92.4503 146.76C92.1557 145.803 91.7138 144.98 91.1246 144.293C90.5354 143.606 89.8112 143.078 88.9519 142.71C88.0927 142.341 87.123 142.157 86.0428 142.157H82.3235V157.697H86.0428C87.1475 157.697 88.1295 157.501 88.9888 157.108C89.848 156.715 90.56 156.175 91.1246 155.488C91.7138 154.776 92.1557 153.953 92.4503 153.02C92.7695 152.063 92.929 151.02 92.929 149.89ZM111.444 163.368C109.824 163.368 108.363 163.11 107.062 162.595C105.786 162.055 104.693 161.331 103.785 160.422C102.901 159.514 102.226 158.471 101.759 157.292C101.293 156.089 101.06 154.837 101.06 153.536C101.06 152.137 101.293 150.823 101.759 149.596C102.226 148.344 102.901 147.251 103.785 146.318C104.669 145.385 105.749 144.649 107.025 144.109C108.327 143.569 109.8 143.299 111.444 143.299C113.089 143.299 114.55 143.569 115.827 144.109C117.103 144.649 118.183 145.385 119.067 146.318C119.951 147.227 120.614 148.282 121.056 149.485C121.522 150.688 121.755 151.953 121.755 153.278C121.755 153.622 121.743 153.966 121.719 154.309C121.694 154.628 121.657 154.911 121.608 155.156H107.32C107.418 156.457 107.885 157.452 108.719 158.139C109.579 158.802 110.548 159.133 111.629 159.133C112.488 159.133 113.31 158.925 114.096 158.507C114.906 158.09 115.446 157.525 115.716 156.813L120.724 158.213C119.963 159.735 118.785 160.975 117.189 161.932C115.593 162.89 113.678 163.368 111.444 163.368ZM115.532 151.511C115.409 150.283 114.967 149.313 114.206 148.602C113.445 147.89 112.5 147.534 111.371 147.534C110.217 147.534 109.259 147.902 108.498 148.638C107.762 149.35 107.332 150.308 107.21 151.511H115.532ZM154.953 163H149.062V152.137C149.062 150.86 148.828 149.939 148.362 149.375C147.92 148.786 147.318 148.491 146.557 148.491C145.772 148.491 144.999 148.81 144.237 149.448C143.501 150.087 142.961 150.909 142.617 151.916V163H136.725V152.137C136.725 150.86 136.492 149.939 136.026 149.375C135.584 148.786 134.982 148.491 134.221 148.491C133.436 148.491 132.662 148.81 131.901 149.448C131.165 150.062 130.625 150.885 130.281 151.916V163H124.389V143.667H129.692V146.908C130.404 145.729 131.373 144.833 132.601 144.219C133.828 143.606 135.252 143.299 136.873 143.299C137.658 143.299 138.358 143.397 138.972 143.593C139.585 143.79 140.101 144.06 140.518 144.403C140.96 144.747 141.316 145.152 141.586 145.619C141.881 146.061 142.089 146.539 142.212 147.055C142.924 145.852 143.881 144.931 145.084 144.293C146.287 143.63 147.662 143.299 149.209 143.299C150.436 143.299 151.418 143.532 152.155 143.998C152.916 144.44 153.505 145.03 153.922 145.766C154.34 146.478 154.61 147.264 154.733 148.123C154.88 148.982 154.953 149.817 154.953 150.627V163ZM168.011 163.368C166.366 163.368 164.893 163.098 163.592 162.558C162.316 162.018 161.236 161.294 160.352 160.385C159.468 159.453 158.793 158.385 158.326 157.182C157.884 155.954 157.664 154.678 157.664 153.352C157.664 152.026 157.884 150.762 158.326 149.559C158.793 148.331 159.468 147.264 160.352 146.355C161.236 145.422 162.316 144.686 163.592 144.146C164.893 143.581 166.366 143.299 168.011 143.299C169.656 143.299 171.117 143.581 172.393 144.146C173.67 144.686 174.75 145.422 175.634 146.355C176.518 147.264 177.193 148.331 177.659 149.559C178.126 150.762 178.359 152.026 178.359 153.352C178.359 154.678 178.126 155.954 177.659 157.182C177.218 158.385 176.555 159.453 175.671 160.385C174.787 161.294 173.695 162.018 172.393 162.558C171.117 163.098 169.656 163.368 168.011 163.368ZM163.703 153.352C163.703 154.874 164.108 156.101 164.918 157.034C165.728 157.943 166.759 158.397 168.011 158.397C168.625 158.397 169.19 158.274 169.705 158.029C170.221 157.783 170.663 157.439 171.031 156.998C171.424 156.556 171.731 156.028 171.952 155.414C172.173 154.776 172.283 154.088 172.283 153.352C172.283 151.83 171.878 150.615 171.068 149.706C170.258 148.773 169.239 148.307 168.011 148.307C167.398 148.307 166.821 148.43 166.281 148.675C165.765 148.921 165.311 149.264 164.918 149.706C164.55 150.148 164.255 150.688 164.034 151.327C163.813 151.94 163.703 152.615 163.703 153.352Z" fill="#F3F3F3"/>
</svg>
