<svg width="252" height="251" viewBox="0 0 252 251" fill="none" xmlns="http://www.w3.org/2000/svg">
<ellipse cx="126" cy="125.5" rx="126" ry="125.5" fill="#D2002E"/>
<path d="M33.5686 120V93.8544H45.3526C46.5801 93.8544 47.7094 94.1122 48.7405 94.6277C49.7961 95.1433 50.7044 95.8184 51.4655 96.6531C52.2265 97.4878 52.8157 98.4329 53.2331 99.4886C53.675 100.544 53.8959 101.612 53.8959 102.692C53.8959 103.502 53.7977 104.288 53.6013 105.049C53.4049 105.786 53.1226 106.485 52.7544 107.148C52.3861 107.811 51.9319 108.412 51.3918 108.953C50.8763 109.468 50.2871 109.91 49.6242 110.278L55.6267 120H48.8141L43.5482 111.567H39.6079V120H33.5686ZM39.6079 106.301H45.1316C45.8436 106.301 46.4573 105.97 46.9729 105.307C47.4884 104.62 47.7462 103.748 47.7462 102.692C47.7462 101.612 47.4516 100.753 46.8624 100.115C46.2732 99.4763 45.6349 99.1572 44.9475 99.1572H39.6079V106.301ZM67.3623 120.368C65.742 120.368 64.2813 120.11 62.9801 119.595C61.7035 119.055 60.6111 118.331 59.7027 117.422C58.8189 116.514 58.1438 115.471 57.6774 114.292C57.2109 113.089 56.9777 111.837 56.9777 110.536C56.9777 109.137 57.2109 107.823 57.6774 106.596C58.1438 105.344 58.8189 104.251 59.7027 103.318C60.5865 102.385 61.6667 101.649 62.9433 101.109C64.2445 100.569 65.7174 100.299 67.3623 100.299C69.0071 100.299 70.4678 100.569 71.7444 101.109C73.021 101.649 74.1012 102.385 74.985 103.318C75.8688 104.227 76.5317 105.282 76.9736 106.485C77.44 107.688 77.6732 108.953 77.6732 110.278C77.6732 110.622 77.661 110.966 77.6364 111.309C77.6119 111.628 77.575 111.911 77.5259 112.156H63.2379C63.3361 113.457 63.8026 114.452 64.6373 115.139C65.4965 115.802 66.4662 116.133 67.5464 116.133C68.4057 116.133 69.2281 115.925 70.0137 115.507C70.8238 115.09 71.3639 114.525 71.634 113.813L76.6421 115.213C75.8811 116.735 74.7027 117.975 73.107 118.932C71.5112 119.89 69.5963 120.368 67.3623 120.368ZM71.4498 108.511C71.3271 107.283 70.8852 106.313 70.1241 105.602C69.3631 104.89 68.4179 104.534 67.2886 104.534C66.1348 104.534 65.1774 104.902 64.4163 105.638C63.6798 106.35 63.2502 107.308 63.1274 108.511H71.4498ZM87.5981 120.368C86.3706 120.368 85.2413 120.11 84.2102 119.595C83.2037 119.079 82.3321 118.367 81.5956 117.459C80.8591 116.551 80.2822 115.483 79.8649 114.255C79.4475 113.028 79.2389 111.702 79.2389 110.278C79.2389 108.879 79.4598 107.578 79.9017 106.375C80.3682 105.147 80.9942 104.092 81.7798 103.208C82.5899 102.3 83.5351 101.588 84.6153 101.072C85.72 100.557 86.923 100.299 88.2241 100.299C89.6971 100.299 90.9614 100.618 92.0171 101.256C93.0973 101.894 93.9933 102.754 94.7053 103.834V100.667H99.8239V120.921C99.8239 121.51 99.9344 121.915 100.155 122.136C100.376 122.381 100.769 122.516 101.334 122.541V127.549C100.818 127.647 100.254 127.721 99.6398 127.77C99.0506 127.819 98.5228 127.844 98.0563 127.844C97.4917 127.844 96.9516 127.745 96.436 127.549C95.945 127.377 95.5154 127.119 95.1472 126.776C94.7789 126.457 94.4843 126.064 94.2634 125.597C94.0424 125.131 93.9319 124.615 93.9319 124.051V116.87C92.6063 119.202 90.495 120.368 87.5981 120.368ZM89.8444 115.397C90.7036 115.397 91.477 115.164 92.1644 114.697C92.8518 114.206 93.441 113.568 93.9319 112.782V108.695C93.7847 108.228 93.5637 107.786 93.2691 107.369C92.9745 106.952 92.6308 106.596 92.238 106.301C91.8452 105.982 91.4279 105.737 90.986 105.565C90.5441 105.393 90.1022 105.307 89.6603 105.307C89.022 105.307 88.4328 105.454 87.8927 105.749C87.3526 106.019 86.8861 106.387 86.4933 106.854C86.1005 107.32 85.7937 107.86 85.5727 108.474C85.3518 109.088 85.2413 109.738 85.2413 110.426C85.2413 111.874 85.6586 113.065 86.4933 113.998C87.3526 114.93 88.4696 115.397 89.8444 115.397ZM109.682 120.368C107.718 120.368 106.22 119.755 105.189 118.527C104.158 117.275 103.642 115.446 103.642 113.04V100.667H109.534V111.751C109.534 112.93 109.768 113.838 110.234 114.476C110.701 115.09 111.363 115.397 112.223 115.397C113.008 115.397 113.769 115.188 114.506 114.771C115.242 114.354 115.893 113.629 116.457 112.598V100.667H122.349V113.372C122.349 113.961 122.46 114.378 122.681 114.624C122.902 114.845 123.295 114.98 123.859 115.029V120C123.246 120.123 122.705 120.196 122.239 120.221C121.797 120.27 121.404 120.295 121.061 120.295C118.998 120.27 117.808 119.448 117.489 117.827L117.378 116.649C116.494 117.926 115.39 118.871 114.064 119.484C112.763 120.074 111.302 120.368 109.682 120.368ZM136.373 120.368C134.753 120.368 133.292 120.11 131.991 119.595C130.714 119.055 129.622 118.331 128.713 117.422C127.829 116.514 127.154 115.471 126.688 114.292C126.221 113.089 125.988 111.837 125.988 110.536C125.988 109.137 126.221 107.823 126.688 106.596C127.154 105.344 127.829 104.251 128.713 103.318C129.597 102.385 130.677 101.649 131.954 101.109C133.255 100.569 134.728 100.299 136.373 100.299C138.018 100.299 139.478 100.569 140.755 101.109C142.032 101.649 143.112 102.385 143.996 103.318C144.879 104.227 145.542 105.282 145.984 106.485C146.451 107.688 146.684 108.953 146.684 110.278C146.684 110.622 146.671 110.966 146.647 111.309C146.622 111.628 146.586 111.911 146.536 112.156H132.248C132.347 113.457 132.813 114.452 133.648 115.139C134.507 115.802 135.477 116.133 136.557 116.133C137.416 116.133 138.239 115.925 139.024 115.507C139.834 115.09 140.374 114.525 140.644 113.813L145.653 115.213C144.892 116.735 143.713 117.975 142.117 118.932C140.522 119.89 138.607 120.368 136.373 120.368ZM140.46 108.511C140.338 107.283 139.896 106.313 139.135 105.602C138.374 104.89 137.428 104.534 136.299 104.534C135.145 104.534 134.188 104.902 133.427 105.638C132.69 106.35 132.261 107.308 132.138 108.511H140.46ZM157.419 120.368C156.609 120.368 155.762 120.307 154.878 120.184C154.019 120.061 153.159 119.902 152.3 119.705C151.441 119.484 150.618 119.227 149.833 118.932C149.047 118.613 148.36 118.269 147.771 117.901L150.091 113.924C151.367 114.66 152.607 115.225 153.81 115.618C155.013 116.011 156.167 116.207 157.271 116.207C158.131 116.207 158.781 116.072 159.223 115.802C159.69 115.532 159.923 115.139 159.923 114.624C159.923 114.108 159.616 113.715 159.002 113.445C158.388 113.151 157.333 112.807 155.835 112.414C154.534 112.07 153.429 111.727 152.521 111.383C151.613 111.039 150.876 110.659 150.312 110.241C149.771 109.8 149.379 109.309 149.133 108.768C148.888 108.228 148.765 107.59 148.765 106.854C148.765 105.872 148.961 104.975 149.354 104.165C149.771 103.355 150.336 102.668 151.048 102.103C151.76 101.539 152.595 101.097 153.552 100.777C154.534 100.458 155.602 100.299 156.756 100.299C158.106 100.299 159.481 100.507 160.88 100.925C162.304 101.318 163.691 101.87 165.041 102.582L162.722 106.301C161.519 105.638 160.438 105.16 159.481 104.865C158.548 104.546 157.64 104.386 156.756 104.386C156.019 104.386 155.406 104.521 154.915 104.791C154.448 105.037 154.215 105.442 154.215 106.007C154.215 106.277 154.276 106.51 154.399 106.706C154.522 106.878 154.718 107.05 154.988 107.222C155.283 107.369 155.663 107.516 156.13 107.664C156.596 107.786 157.173 107.934 157.861 108.106C159.285 108.474 160.487 108.842 161.469 109.21C162.451 109.579 163.249 109.996 163.863 110.462C164.477 110.904 164.919 111.42 165.189 112.009C165.459 112.598 165.594 113.298 165.594 114.108C165.594 115.065 165.397 115.937 165.005 116.723C164.636 117.484 164.096 118.134 163.384 118.674C162.672 119.214 161.813 119.632 160.807 119.926C159.8 120.221 158.671 120.368 157.419 120.368ZM180.754 118.969C179.943 119.313 179.023 119.632 177.992 119.926C176.961 120.221 175.905 120.368 174.825 120.368C174.088 120.368 173.389 120.27 172.726 120.074C172.087 119.902 171.523 119.619 171.032 119.227C170.541 118.809 170.148 118.269 169.853 117.606C169.583 116.944 169.448 116.146 169.448 115.213V105.123H166.981V100.667H169.448V94.5172H175.34V100.667H179.281V105.123H175.34V113.187C175.34 113.826 175.5 114.292 175.819 114.587C176.163 114.857 176.58 114.992 177.071 114.992C177.488 114.992 177.93 114.918 178.397 114.771C178.863 114.624 179.281 114.464 179.649 114.292L180.754 118.969ZM197.132 120.368C196.175 120.368 195.278 120.221 194.444 119.926C193.634 119.607 192.934 119.178 192.345 118.637C191.756 118.073 191.289 117.422 190.945 116.686C190.602 115.925 190.43 115.102 190.43 114.219C190.43 113.261 190.626 112.39 191.019 111.604C191.436 110.818 192.013 110.143 192.75 109.579C193.486 109.014 194.358 108.572 195.364 108.253C196.371 107.934 197.488 107.774 198.715 107.774C199.526 107.774 200.311 107.848 201.072 107.995C201.833 108.118 202.496 108.314 203.061 108.584V107.701C203.061 105.466 201.772 104.349 199.194 104.349C198.139 104.349 197.132 104.534 196.175 104.902C195.217 105.246 194.211 105.773 193.155 106.485L191.424 102.803C192.701 101.968 194.026 101.342 195.401 100.925C196.776 100.507 198.237 100.299 199.783 100.299C202.705 100.299 204.963 100.986 206.559 102.361C208.155 103.736 208.953 105.749 208.953 108.4V113.372C208.953 113.961 209.063 114.378 209.284 114.624C209.505 114.845 209.898 114.98 210.463 115.029V120C209.898 120.123 209.37 120.196 208.879 120.221C208.413 120.27 207.995 120.295 207.627 120.295C206.547 120.27 205.724 120.049 205.16 119.632C204.595 119.214 204.239 118.613 204.092 117.827L203.981 116.944C203.122 118.048 202.091 118.895 200.888 119.484C199.71 120.074 198.458 120.368 197.132 120.368ZM198.863 116.133C199.501 116.133 200.115 116.023 200.704 115.802C201.318 115.581 201.821 115.286 202.214 114.918C202.778 114.476 203.061 114.01 203.061 113.519V111.678C202.545 111.481 201.981 111.334 201.367 111.236C200.778 111.113 200.225 111.052 199.71 111.052C198.63 111.052 197.733 111.297 197.022 111.788C196.334 112.279 195.99 112.917 195.99 113.703C195.99 114.415 196.26 115.004 196.801 115.471C197.341 115.912 198.028 116.133 198.863 116.133ZM75.2842 163V136.854H85.0428C87.2032 136.854 89.0935 137.198 90.7138 137.885C92.3341 138.573 93.6843 139.506 94.7645 140.684C95.8693 141.863 96.6917 143.25 97.2318 144.845C97.7964 146.417 98.0788 148.098 98.0788 149.89C98.0788 151.879 97.7719 153.683 97.1581 155.304C96.5444 156.899 95.6606 158.274 94.5068 159.428C93.3775 160.557 92.0027 161.441 90.3824 162.079C88.7866 162.693 87.0068 163 85.0428 163H75.2842ZM91.929 149.89C91.929 148.737 91.7695 147.693 91.4503 146.76C91.1557 145.803 90.7138 144.98 90.1246 144.293C89.5354 143.606 88.8112 143.078 87.9519 142.71C87.0927 142.341 86.123 142.157 85.0428 142.157H81.3235V157.697H85.0428C86.1475 157.697 87.1295 157.501 87.9888 157.108C88.848 156.715 89.56 156.175 90.1246 155.488C90.7138 154.776 91.1557 153.953 91.4503 153.02C91.7695 152.063 91.929 151.02 91.929 149.89ZM110.444 163.368C108.824 163.368 107.363 163.11 106.062 162.595C104.786 162.055 103.693 161.331 102.785 160.422C101.901 159.514 101.226 158.471 100.759 157.292C100.293 156.089 100.06 154.837 100.06 153.536C100.06 152.137 100.293 150.823 100.759 149.596C101.226 148.344 101.901 147.251 102.785 146.318C103.669 145.385 104.749 144.649 106.025 144.109C107.327 143.569 108.8 143.299 110.444 143.299C112.089 143.299 113.55 143.569 114.827 144.109C116.103 144.649 117.183 145.385 118.067 146.318C118.951 147.227 119.614 148.282 120.056 149.485C120.522 150.688 120.755 151.953 120.755 153.278C120.755 153.622 120.743 153.966 120.719 154.309C120.694 154.628 120.657 154.911 120.608 155.156H106.32C106.418 156.457 106.885 157.452 107.719 158.139C108.579 158.802 109.548 159.133 110.629 159.133C111.488 159.133 112.31 158.925 113.096 158.507C113.906 158.09 114.446 157.525 114.716 156.813L119.724 158.213C118.963 159.735 117.785 160.975 116.189 161.932C114.593 162.89 112.678 163.368 110.444 163.368ZM114.532 151.511C114.409 150.283 113.967 149.313 113.206 148.602C112.445 147.89 111.5 147.534 110.371 147.534C109.217 147.534 108.259 147.902 107.498 148.638C106.762 149.35 106.332 150.308 106.21 151.511H114.532ZM153.953 163H148.062V152.137C148.062 150.86 147.828 149.939 147.362 149.375C146.92 148.786 146.318 148.491 145.557 148.491C144.772 148.491 143.999 148.81 143.237 149.448C142.501 150.087 141.961 150.909 141.617 151.916V163H135.725V152.137C135.725 150.86 135.492 149.939 135.026 149.375C134.584 148.786 133.982 148.491 133.221 148.491C132.436 148.491 131.662 148.81 130.901 149.448C130.165 150.062 129.625 150.885 129.281 151.916V163H123.389V143.667H128.692V146.908C129.404 145.729 130.373 144.833 131.601 144.219C132.828 143.606 134.252 143.299 135.873 143.299C136.658 143.299 137.358 143.397 137.972 143.593C138.585 143.79 139.101 144.06 139.518 144.403C139.96 144.747 140.316 145.152 140.586 145.619C140.881 146.061 141.089 146.539 141.212 147.055C141.924 145.852 142.881 144.931 144.084 144.293C145.287 143.63 146.662 143.299 148.209 143.299C149.436 143.299 150.418 143.532 151.155 143.998C151.916 144.44 152.505 145.03 152.922 145.766C153.34 146.478 153.61 147.264 153.733 148.123C153.88 148.982 153.953 149.817 153.953 150.627V163ZM167.011 163.368C165.366 163.368 163.893 163.098 162.592 162.558C161.316 162.018 160.236 161.294 159.352 160.385C158.468 159.453 157.793 158.385 157.326 157.182C156.884 155.954 156.664 154.678 156.664 153.352C156.664 152.026 156.884 150.762 157.326 149.559C157.793 148.331 158.468 147.264 159.352 146.355C160.236 145.422 161.316 144.686 162.592 144.146C163.893 143.581 165.366 143.299 167.011 143.299C168.656 143.299 170.117 143.581 171.393 144.146C172.67 144.686 173.75 145.422 174.634 146.355C175.518 147.264 176.193 148.331 176.659 149.559C177.126 150.762 177.359 152.026 177.359 153.352C177.359 154.678 177.126 155.954 176.659 157.182C176.218 158.385 175.555 159.453 174.671 160.385C173.787 161.294 172.695 162.018 171.393 162.558C170.117 163.098 168.656 163.368 167.011 163.368ZM162.703 153.352C162.703 154.874 163.108 156.101 163.918 157.034C164.728 157.943 165.759 158.397 167.011 158.397C167.625 158.397 168.19 158.274 168.705 158.029C169.221 157.783 169.663 157.439 170.031 156.998C170.424 156.556 170.731 156.028 170.952 155.414C171.173 154.776 171.283 154.088 171.283 153.352C171.283 151.83 170.878 150.615 170.068 149.706C169.258 148.773 168.239 148.307 167.011 148.307C166.398 148.307 165.821 148.43 165.281 148.675C164.765 148.921 164.311 149.264 163.918 149.706C163.55 150.148 163.255 150.688 163.034 151.327C162.813 151.94 162.703 152.615 162.703 153.352Z" fill="#F3F3F3"/>
</svg>
