<svg width="60" height="62" viewBox="0 0 60 62" fill="none" xmlns="http://www.w3.org/2000/svg">
<path d="M51.2563 9.62315C48.4917 6.83151 45.1991 4.61803 41.5704 3.11168C37.9417 1.60534 34.0495 0.836267 30.1206 0.849284C13.6583 0.849284 0.241207 14.2664 0.241207 30.7287C0.241207 36.0051 1.62814 41.1307 4.22111 45.6533L0 61.1508L15.8291 56.99C20.201 59.3719 25.1156 60.6382 30.1206 60.6382C46.5829 60.6382 60 47.2211 60 30.7588C60 22.7689 56.8945 15.2613 51.2563 9.62315ZM30.1206 55.5729C25.6583 55.5729 21.2864 54.3669 17.4573 52.1056L16.5528 51.5628L7.14573 54.0352L9.64824 44.8694L9.04523 43.9347C6.56547 39.9761 5.24902 35.3999 5.24623 30.7287C5.24623 17.0402 16.402 5.88446 30.0904 5.88446C36.7236 5.88446 42.9648 8.47742 47.6382 13.1809C49.9526 15.484 51.7867 18.2238 53.034 21.2412C54.2814 24.2587 54.9172 27.4938 54.9045 30.7588C54.9648 44.4473 43.809 55.5729 30.1206 55.5729ZM43.7487 37C42.995 36.6382 39.3166 34.8292 38.6533 34.5578C37.9598 34.3166 37.4774 34.196 36.9648 34.9196C36.4523 35.6734 35.0352 37.3618 34.6131 37.8443C34.191 38.3568 33.7387 38.4171 32.9849 38.0252C32.2312 37.6634 29.8191 36.8493 26.9849 34.3166C24.7538 32.3267 23.2764 29.8845 22.8241 29.1307C22.402 28.3769 22.7638 27.985 23.1558 27.593C23.4874 27.2613 23.9095 26.7186 24.2714 26.2965C24.6332 25.8744 24.7839 25.5427 25.0251 25.0603C25.2663 24.5478 25.1457 24.1257 24.9648 23.7639C24.7839 23.402 23.2764 19.7237 22.6734 18.2161C22.0703 16.7689 21.4372 16.9498 20.9849 16.9196H19.5377C19.0251 16.9196 18.2412 17.1005 17.5477 17.8543C16.8844 18.6081 14.9548 20.4171 14.9548 24.0955C14.9548 27.7739 17.6382 31.3317 18 31.8141C18.3618 32.3267 23.2764 39.8644 30.7538 43.0905C32.5327 43.8744 33.9196 44.3267 35.005 44.6583C36.7839 45.2312 38.4121 45.1407 39.7085 44.9598C41.1558 44.7488 44.1407 43.1508 44.7437 41.402C45.3769 39.6533 45.3769 38.1759 45.1658 37.8443C44.9548 37.5126 44.5025 37.3618 43.7487 37Z" fill="#F3F3F3"/>
</svg>
