<svg width="108" height="108" viewBox="0 0 108 108" fill="none" xmlns="http://www.w3.org/2000/svg">
<circle cx="54" cy="54" r="54" fill="#D2002E"/>
<path d="M75.2563 32.6232C72.4917 29.8315 69.1991 27.618 65.5704 26.1117C61.9417 24.6053 58.0495 23.8363 54.1206 23.8493C37.6583 23.8493 24.2412 37.2664 24.2412 53.7287C24.2412 59.0051 25.6281 64.1307 28.2211 68.6533L24 84.1508L39.8291 79.99C44.201 82.3719 49.1156 83.6382 54.1206 83.6382C70.5829 83.6382 84 70.2211 84 53.7588C84 45.7689 80.8945 38.2613 75.2563 32.6232ZM54.1206 78.5729C49.6583 78.5729 45.2864 77.3669 41.4573 75.1056L40.5528 74.5628L31.1457 77.0352L33.6482 67.8694L33.0452 66.9347C30.5655 62.9761 29.249 58.3999 29.2462 53.7287C29.2462 40.0402 40.402 28.8845 54.0904 28.8845C60.7236 28.8845 66.9648 31.4774 71.6382 36.1809C73.9526 38.484 75.7867 41.2238 77.034 44.2412C78.2814 47.2587 78.9172 50.4938 78.9045 53.7588C78.9648 67.4473 67.809 78.5729 54.1206 78.5729ZM67.7487 60C66.995 59.6382 63.3166 57.8292 62.6533 57.5578C61.9598 57.3166 61.4774 57.196 60.9648 57.9196C60.4523 58.6734 59.0352 60.3618 58.6131 60.8443C58.191 61.3568 57.7387 61.4171 56.9849 61.0252C56.2312 60.6634 53.8191 59.8493 50.9849 57.3166C48.7538 55.3267 47.2764 52.8845 46.8241 52.1307C46.402 51.3769 46.7638 50.985 47.1558 50.593C47.4874 50.2613 47.9095 49.7186 48.2714 49.2965C48.6332 48.8744 48.7839 48.5427 49.0251 48.0603C49.2663 47.5478 49.1457 47.1257 48.9648 46.7639C48.7839 46.402 47.2764 42.7237 46.6734 41.2161C46.0703 39.7689 45.4372 39.9498 44.9849 39.9196H43.5377C43.0251 39.9196 42.2412 40.1005 41.5477 40.8543C40.8844 41.6081 38.9548 43.4171 38.9548 47.0955C38.9548 50.7739 41.6382 54.3317 42 54.8141C42.3618 55.3267 47.2764 62.8644 54.7538 66.0905C56.5327 66.8744 57.9196 67.3267 59.005 67.6583C60.7839 68.2312 62.4121 68.1407 63.7085 67.9598C65.1558 67.7488 68.1407 66.1508 68.7437 64.402C69.3769 62.6533 69.3769 61.1759 69.1658 60.8443C68.9548 60.5126 68.5025 60.3618 67.7487 60Z" fill="#F3F3F3"/>
</svg>
