<svg width="30" height="30" viewBox="0 0 30 30" fill="none" xmlns="http://www.w3.org/2000/svg">
<path fill-rule="evenodd" clip-rule="evenodd" d="M15 0C6.71581 0 0 6.71581 0 15C0 23.2842 6.71581 30 15 30C23.2842 30 30 23.2842 30 15C30 6.71581 23.2842 0 15 0ZM11.7935 10.313C11.5962 10.1223 11.3319 10.0167 11.0575 10.0189C10.7831 10.0212 10.5206 10.1311 10.3265 10.3251C10.1323 10.519 10.0221 10.7814 10.0196 11.0558C10.0171 11.3302 10.1225 11.5946 10.313 11.7921L13.5195 15L10.313 18.2065C10.1282 18.4049 10.0275 18.6673 10.0323 18.9384C10.0371 19.2095 10.1469 19.4682 10.3387 19.6599C10.5304 19.8517 10.7891 19.9615 11.0602 19.9663C11.3313 19.9711 11.5937 19.8704 11.7921 19.6856L15 16.4819L18.2065 19.6884C18.4049 19.8732 18.6673 19.9739 18.9384 19.9691C19.2095 19.9643 19.4682 19.8545 19.6599 19.6627C19.8517 19.471 19.9615 19.2123 19.9663 18.9412C19.9711 18.6701 19.8704 18.4077 19.6856 18.2093L16.4791 15L19.6856 11.7935C19.7884 11.6977 19.8709 11.5821 19.9281 11.4538C19.9853 11.3254 20.016 11.1868 20.0185 11.0463C20.021 10.9058 19.9951 10.7662 19.9425 10.6359C19.8899 10.5056 19.8115 10.3872 19.7121 10.2879C19.6128 10.1885 19.4944 10.1101 19.3641 10.0575C19.2338 10.0049 19.0942 9.97902 18.9537 9.9815C18.8132 9.98398 18.6746 10.0147 18.5462 10.0719C18.4179 10.1291 18.3023 10.2116 18.2065 10.3144L15 13.5181L11.7935 10.313Z" fill="#D2002E"/>
</svg>
