<?xml version="1.0" standalone="no"?>
<!DOCTYPE svg PUBLIC "-//W3C//DTD SVG 20010904//EN"
 "http://www.w3.org/TR/2001/REC-SVG-20010904/DTD/svg10.dtd">
<svg version="1.0" xmlns="http://www.w3.org/2000/svg"
 width="700.000000pt" height="700.000000pt" viewBox="0 0 700.000000 700.000000"
 preserveAspectRatio="xMidYMid meet">
<metadata>
Created by potrace 1.14, written by Peter Selinger 2001-2017
</metadata>
<g transform="translate(0.000000,700.000000) scale(0.100000,-0.100000)"
fill="#000000" stroke="none">
<path d="M3140 6989 c-664 -61 -1320 -328 -1855 -756 -142 -113 -407 -378
-519 -518 -439 -551 -694 -1186 -757 -1888 -15 -163 -6 -601 15 -752 57 -404
164 -752 341 -1105 405 -812 1125 -1441 1980 -1729 380 -128 713 -182 1120
-183 800 -2 1511 242 2155 738 148 114 470 435 584 584 416 539 660 1150 726
1818 16 164 13 533 -5 698 -87 790 -416 1493 -965 2058 -515 530 -1179 878
-1912 1000 -78 14 -198 29 -265 35 -140 13 -504 12 -643 0z m169 -1720 c377
-63 713 -240 956 -501 72 -79 173 -214 164 -222 -15 -12 -621 -356 -629 -356
-6 0 -10 4 -10 10 0 18 -124 142 -185 185 -252 179 -616 234 -920 138 -371
-117 -612 -422 -656 -833 -20 -181 10 -380 81 -536 71 -158 217 -319 362 -402
96 -55 244 -108 356 -127 115 -21 352 -21 457 0 280 53 475 191 586 413 l39
77 -440 3 -440 2 0 325 0 325 820 0 820 0 0 -204 c0 -444 -77 -734 -271 -1027
-79 -119 -262 -303 -379 -380 -182 -121 -399 -208 -625 -251 -170 -32 -514
-32 -685 0 -569 105 -1014 431 -1260 921 -51 103 -112 283 -140 416 -31 145
-38 421 -16 575 56 383 214 705 475 967 400 403 964 579 1540 482z m2376
-2525 c67 -18 163 -81 207 -135 147 -182 141 -423 -17 -588 -63 -66 -126 -104
-210 -126 -204 -53 -416 48 -507 241 -80 170 -45 365 88 496 118 119 273 158
439 112z"/>
</g>
</svg>
