<svg width="149" height="150" viewBox="0 0 149 150" fill="none" xmlns="http://www.w3.org/2000/svg">
<rect y="0.0197754" width="149" height="149.001" fill="#FF7224"/>
<path d="M105.02 68.5318V75.6838C105.02 101.193 87.2593 116.689 63.8961 116.689C37.6721 116.689 18.8385 97.3782 18.8385 73.419C18.8385 49.2214 38.0297 29.911 62.5849 29.911C78.5577 29.911 92.0273 37.7782 99.0601 48.983L82.8489 58.2806C79.3921 52.7974 71.8825 48.5062 62.4657 48.5062C48.4001 48.5062 37.9105 58.8766 37.9105 73.5382C37.9105 87.723 47.9233 98.0934 64.1345 98.0934C75.2201 98.0934 82.4913 93.2062 85.4713 85.2198H63.1809V68.5318H105.02Z" fill="#F4F4F4"/>
<path d="M120.674 116.669C114.475 116.669 109.35 111.543 109.35 105.345C109.35 99.1464 114.475 94.0208 120.674 94.0208C126.872 94.0208 131.998 99.1464 131.998 105.345C131.998 111.543 126.872 116.669 120.674 116.669Z" fill="#F4F4F4"/>
</svg>
