<svg width="25" height="26" viewBox="0 0 25 26" fill="none" xmlns="http://www.w3.org/2000/svg">
<path d="M10.2648 17.6968L5.55273 12.9836L7.12306 11.4132L10.2648 14.5539L16.5461 8.27148L18.1175 9.84292L10.2648 17.6968Z" fill="#D2002E"/>
<path fill-rule="evenodd" clip-rule="evenodd" d="M0 12.9059C0 6.1593 5.46948 0.689819 12.2161 0.689819C18.9627 0.689819 24.4322 6.1593 24.4322 12.9059C24.4322 19.6525 18.9627 25.122 12.2161 25.122C5.46948 25.122 0 19.6525 0 12.9059ZM12.2161 22.9009C10.9035 22.9009 9.60383 22.6424 8.39118 22.1401C7.17854 21.6378 6.0767 20.9016 5.14858 19.9734C4.22045 19.0453 3.48423 17.9435 2.98193 16.7308C2.47964 15.5182 2.22111 14.2185 2.22111 12.9059C2.22111 11.5934 2.47964 10.2937 2.98193 9.081C3.48423 7.86836 4.22045 6.76652 5.14858 5.83839C6.0767 4.91027 7.17854 4.17405 8.39118 3.67175C9.60383 3.16946 10.9035 2.91093 12.2161 2.91093C14.8669 2.91093 17.4092 3.96397 19.2836 5.83839C21.1581 7.71282 22.2111 10.2551 22.2111 12.9059C22.2111 15.5568 21.1581 18.099 19.2836 19.9734C17.4092 21.8479 14.8669 22.9009 12.2161 22.9009Z" fill="#D2002E"/>
</svg>
