<svg width="30" height="30" viewBox="0 0 30 30" fill="none" xmlns="http://www.w3.org/2000/svg">
<path d="M16.586 4.58606C16.9611 4.21112 17.4697 4.00049 18 4.00049C18.5303 4.00049 19.0389 4.21112 19.414 4.58606L28.414 13.5861C28.7889 13.9611 28.9996 14.4697 28.9996 15.0001C28.9996 15.5304 28.7889 16.039 28.414 16.4141L19.414 25.4141C19.0368 25.7784 18.5316 25.98 18.0072 25.9754C17.4828 25.9709 16.9812 25.7605 16.6104 25.3897C16.2395 25.0189 16.0292 24.5173 16.0247 23.9929C16.0201 23.4685 16.2217 22.9633 16.586 22.5861L22 17.0001H3C2.46957 17.0001 1.96086 16.7893 1.58579 16.4143C1.21071 16.0392 1 15.5305 1 15.0001C1 14.4696 1.21071 13.9609 1.58579 13.5858C1.96086 13.2108 2.46957 13.0001 3 13.0001H22L16.586 7.41406C16.2111 7.03901 16.0004 6.53039 16.0004 6.00006C16.0004 5.46973 16.2111 4.96112 16.586 4.58606Z" fill="#F3F3F3"/>
</svg>
