<svg width="38" height="26" viewBox="0 0 38 26" fill="none" xmlns="http://www.w3.org/2000/svg">
<path d="M0 0.5H37.5V25.5H0V0.5ZM18.75 6.75C20.4076 6.75 21.9973 7.40848 23.1694 8.58058C24.3415 9.75268 25 11.3424 25 13C25 14.6576 24.3415 16.2473 23.1694 17.4194C21.9973 18.5915 20.4076 19.25 18.75 19.25C17.0924 19.25 15.5027 18.5915 14.3306 17.4194C13.1585 16.2473 12.5 14.6576 12.5 13C12.5 11.3424 13.1585 9.75268 14.3306 8.58058C15.5027 7.40848 17.0924 6.75 18.75 6.75ZM8.33333 4.66667C8.33333 5.77174 7.89435 6.83154 7.11295 7.61294C6.33154 8.39435 5.27174 8.83333 4.16667 8.83333V17.1667C5.27174 17.1667 6.33154 17.6057 7.11295 18.3871C7.89435 19.1685 8.33333 20.2283 8.33333 21.3333H29.1667C29.1667 20.2283 29.6057 19.1685 30.3871 18.3871C31.1685 17.6057 32.2283 17.1667 33.3333 17.1667V8.83333C32.2283 8.83333 31.1685 8.39435 30.3871 7.61294C29.6057 6.83154 29.1667 5.77174 29.1667 4.66667H8.33333Z" fill="#F3F3F3"/>
</svg>
