<svg width="58" height="62" viewBox="0 0 58 62" fill="none" xmlns="http://www.w3.org/2000/svg">
<path d="M5.90476 41.3333C9.16587 41.3333 11.8095 38.6897 11.8095 35.4286C11.8095 32.1675 9.16587 29.5238 5.90476 29.5238C2.64365 29.5238 0 32.1675 0 35.4286C0 38.6897 2.64365 41.3333 5.90476 41.3333Z" fill="#FFA726"/>
<path d="M47.2378 41.3333C50.4989 41.3333 53.1425 38.6897 53.1425 35.4286C53.1425 32.1675 50.4989 29.5238 47.2378 29.5238C43.9767 29.5238 41.333 32.1675 41.333 35.4286C41.333 38.6897 43.9767 41.3333 47.2378 41.3333Z" fill="#FFA726"/>
<path d="M48.7144 25.0952C48.7144 6.34764 4.42871 12.8429 4.42871 25.0952V39.8571C4.42871 52.1095 14.3192 62 26.5716 62C38.8239 62 48.7144 52.1095 48.7144 39.8571V25.0952Z" fill="#FFB74D"/>
<path d="M26.5713 1.4762C12.6951 1.4762 1.47607 12.6952 1.47607 26.5714V31.5905L4.42845 33.9524V29.5238L35.4284 15.0571L48.7141 29.5238V33.9524L51.6665 31.5905V26.5714C51.6665 14.7619 43.2522 1.4762 26.5713 1.4762Z" fill="#FF5722"/>
<path d="M36.905 38.381C38.5356 38.381 39.8574 37.0591 39.8574 35.4286C39.8574 33.798 38.5356 32.4762 36.905 32.4762C35.2745 32.4762 33.9526 33.798 33.9526 35.4286C33.9526 37.0591 35.2745 38.381 36.905 38.381Z" fill="#784719"/>
<path d="M16.238 38.381C17.8686 38.381 19.1904 37.0591 19.1904 35.4286C19.1904 33.798 17.8686 32.4762 16.238 32.4762C14.6075 32.4762 13.2856 33.798 13.2856 35.4286C13.2856 37.0591 14.6075 38.381 16.238 38.381Z" fill="#784719"/>
<path d="M54.6191 32.4762C53.7334 32.4762 53.1429 33.0666 53.1429 33.9524V23.619C53.1429 10.6286 42.5143 0 29.5239 0H19.1905C18.3048 0 17.7144 0.590476 17.7144 1.47619C17.7144 2.3619 18.3048 2.95238 19.1905 2.95238H29.5239C40.8905 2.95238 50.1905 12.2524 50.1905 23.619V38.3809C50.1905 39.2666 50.781 39.8571 51.6667 39.8571C52.5524 39.8571 53.1429 39.2666 53.1429 38.3809V41.3333C53.1429 47.0904 48.5667 51.6666 42.8096 51.6666H26.5715C25.6858 51.6666 25.0953 52.2571 25.0953 53.1428C25.0953 54.0285 25.6858 54.619 26.5715 54.619H42.8096C50.1905 54.619 56.0953 48.7143 56.0953 41.3333V33.9524C56.0953 33.0666 55.5048 32.4762 54.6191 32.4762Z" fill="#757575"/>
<path d="M54.619 29.5238H53.1428C51.519 29.5238 50.1904 30.8524 50.1904 32.4762V38.3809C50.1904 40.0048 51.519 41.3333 53.1428 41.3333H54.619C56.2428 41.3333 57.5714 40.0048 57.5714 38.3809V32.4762C57.5714 30.8524 56.2428 29.5238 54.619 29.5238Z" fill="#37474F"/>
<path d="M26.5715 56.0952C28.2021 56.0952 29.5239 54.7734 29.5239 53.1428C29.5239 51.5123 28.2021 50.1904 26.5715 50.1904C24.941 50.1904 23.6191 51.5123 23.6191 53.1428C23.6191 54.7734 24.941 56.0952 26.5715 56.0952Z" fill="#37474F"/>
</svg>
