<svg width="51" height="57" viewBox="0 0 51 57" fill="none" xmlns="http://www.w3.org/2000/svg">
<path d="M45.3333 56.6667H8.5V0H45.3333C48.45 0 51 2.55 51 5.66667V51C51 54.1167 48.45 56.6667 45.3333 56.6667Z" fill="#FF7043"/>
<path d="M5.66667 0H8.5V56.6667H5.66667C2.55 56.6667 0 54.1167 0 51V5.66667C0 2.55 2.55 0 5.66667 0Z" fill="#BF360C"/>
<path d="M28.3332 28.3333C31.4628 28.3333 33.9998 25.7963 33.9998 22.6667C33.9998 19.5371 31.4628 17 28.3332 17C25.2036 17 22.6665 19.5371 22.6665 22.6667C22.6665 25.7963 25.2036 28.3333 28.3332 28.3333Z" fill="#AB300B"/>
<path d="M38.2498 36.8334C38.2498 36.8334 35.5582 31.1667 28.3332 31.1667C21.1082 31.1667 18.4165 36.8334 18.4165 36.8334V39.6667H38.2498V36.8334Z" fill="#AB300B"/>
</svg>
