<svg width="19" height="18" viewBox="0 0 19 18" fill="none" xmlns="http://www.w3.org/2000/svg">
<path d="M4.54498 7.79C5.98311 10.62 8.30009 12.93 11.1264 14.38L13.3235 12.18C13.5932 11.91 13.9927 11.82 14.3422 11.94C15.4608 12.31 16.6692 12.51 17.9076 12.51C18.4569 12.51 18.9063 12.96 18.9063 13.51V17C18.9063 17.55 18.4569 18 17.9076 18C8.52979 18 0.929688 10.39 0.929688 1C0.929688 0.45 1.3791 0 1.92839 0H5.42383C5.97312 0 6.42253 0.45 6.42253 1C6.42253 2.25 6.62227 3.45 6.99179 4.57C7.10165 4.92 7.02175 5.31 6.74212 5.59L4.54498 7.79Z" fill="#F3F3F3"/>
</svg>
