<svg width="35" height="44" viewBox="0 0 35 44" fill="none" xmlns="http://www.w3.org/2000/svg">
<path d="M4.91667 43.8334C3.77083 43.8334 2.79028 43.4257 1.975 42.6105C1.15972 41.7952 0.751389 40.8139 0.75 39.6667V18.8334C0.75 17.6875 1.15833 16.707 1.975 15.8917C2.79167 15.0764 3.77222 14.6681 4.91667 14.6667H7V10.5C7 7.6181 8.01597 5.16185 10.0479 3.13129C12.0799 1.10074 14.5361 0.0847643 17.4167 0.0833754C20.2972 0.0819866 22.7542 1.09796 24.7875 3.13129C26.8208 5.16463 27.8361 7.62088 27.8333 10.5V14.6667H29.9167C31.0625 14.6667 32.0437 15.075 32.8604 15.8917C33.6771 16.7084 34.0847 17.6889 34.0833 18.8334V39.6667C34.0833 40.8125 33.6757 41.7938 32.8604 42.6105C32.0451 43.4271 31.0639 43.8348 29.9167 43.8334H4.91667ZM17.4167 33.4167C18.5625 33.4167 19.5437 33.0091 20.3604 32.1938C21.1771 31.3785 21.5847 30.3973 21.5833 29.25C21.5819 28.1028 21.1743 27.1223 20.3604 26.3084C19.5465 25.4945 18.5653 25.0862 17.4167 25.0834C16.2681 25.0806 15.2875 25.4889 14.475 26.3084C13.6625 27.1278 13.2542 28.1084 13.25 29.25C13.2458 30.3917 13.6542 31.373 14.475 32.1938C15.2958 33.0146 16.2764 33.4223 17.4167 33.4167ZM11.1667 14.6667H23.6667V10.5C23.6667 8.76393 23.059 7.28824 21.8438 6.07296C20.6285 4.85768 19.1528 4.25004 17.4167 4.25004C15.6806 4.25004 14.2049 4.85768 12.9896 6.07296C11.7743 7.28824 11.1667 8.76393 11.1667 10.5V14.6667Z" fill="#F3F3F3"/>
</svg>
